<svg width="24" height="24" viewBox="0 0 24 24" fill="none" xmlns="http://www.w3.org/2000/svg">
<path d="M6.43282 14.3325C7.94316 14.3325 9.16754 13.1081 9.16754 11.5977C9.16754 10.0874 7.94316 8.86302 6.43282 8.86302C4.92248 8.86302 3.6981 10.0874 3.6981 11.5977C3.6981 13.1081 4.92248 14.3325 6.43282 14.3325Z" stroke="#333333" stroke-width="1.5" stroke-linecap="round" stroke-linejoin="round"/>
<path d="M16.7653 19.4987C18.2756 19.4987 19.5 18.2743 19.5 16.764C19.5 15.2537 18.2756 14.0293 16.7653 14.0293C15.255 14.0293 14.0306 15.2537 14.0306 16.764C14.0306 18.2743 15.255 19.4987 16.7653 19.4987Z" stroke="#333333" stroke-width="1.5" stroke-linecap="round" stroke-linejoin="round"/>
<path d="M16.7653 9.16737C18.2756 9.16737 19.5 7.943 19.5 6.43265C19.5 4.92231 18.2756 3.69794 16.7653 3.69794C15.255 3.69794 14.0306 4.92231 14.0306 6.43265C14.0306 7.943 15.255 9.16737 16.7653 9.16737Z" stroke="#333333" stroke-width="1.5" stroke-linecap="round" stroke-linejoin="round"/>
<path d="M8.87808 10.383L14.3232 7.64825" stroke="#333333" stroke-width="1.5" stroke-linecap="round" stroke-linejoin="round"/>
<path d="M8.87808 12.8133L14.3232 15.5481" stroke="#333333" stroke-width="1.5" stroke-linecap="round" stroke-linejoin="round"/>
</svg>
