<?xml version="1.0" encoding="utf-8"?>
<!-- Generator: Adobe Illustrator 23.0.0, SVG Export Plug-In . SVG Version: 6.00 Build 0)  -->
<svg version="1.1" id="레이어_1" xmlns="http://www.w3.org/2000/svg" xmlns:xlink="http://www.w3.org/1999/xlink" x="0px"
	 y="0px" viewBox="0 0 24 32" style="enable-background:new 0 0 24 32;" xml:space="preserve">
<g>
	<g>
		<g>
			<path style="fill:#111111;" d="M11.772,2.83c2.481,0,4.5,2.019,4.5,4.5s-2.019,4.5-4.5,4.5s-4.5-2.019-4.5-4.5
				S9.29,2.83,11.772,2.83 M11.772,1.33c-3.314,0-6,2.686-6,6c0,3.314,2.686,6,6,6s6-2.686,6-6
				C17.772,4.016,15.085,1.33,11.772,1.33L11.772,1.33z"/>
		</g>
		
			<line style="fill:none;stroke:#111111;stroke-width:1.5;stroke-linecap:round;stroke-linejoin:round;" x1="15.672" y1="12" x2="18.228" y2="14.61"/>
	</g>
	<g>
		<g>
			<path style="fill:#111111;" d="M6.881,22.812c-0.382,0.724-0.938,1.345-1.667,1.86c-0.729,0.517-1.609,0.92-2.64,1.21
				l-0.522-1.019c0.856-0.235,1.588-0.545,2.194-0.931s1.065-0.829,1.378-1.33c0.312-0.501,0.469-1.044,0.472-1.626v-0.602h1.363
				C7.456,21.276,7.264,22.088,6.881,22.812z M6.987,21.424H2.619v-1.049h4.368V21.424z M10.849,30.18h-6.97v-4.049h6.97V30.18z
				 M5.155,29.151h4.4v-1.993h-4.4V29.151z M9.734,23.4H7.509v-1.073h2.226V23.4z M10.849,25.7H9.548v-5.959h1.301V25.7z"/>
			<path style="fill:#111111;" d="M15.146,23.363c-0.186,0.55-0.463,1.04-0.833,1.473s-0.823,0.763-1.359,0.992l-0.7-1.007
				c0.47-0.204,0.865-0.477,1.187-0.818c0.322-0.341,0.562-0.715,0.72-1.121c0.157-0.405,0.236-0.817,0.236-1.234v-1.289h1.031
				v1.289C15.425,22.241,15.331,22.813,15.146,23.363z M21.411,30.316h-1.297v-2.615h-5.959v-1.048h7.256V30.316z M15.888,22.818
				c0.152,0.374,0.381,0.712,0.688,1.015s0.684,0.544,1.132,0.724l-0.696,0.998c-0.52-0.21-0.958-0.512-1.315-0.907
				c-0.358-0.396-0.624-0.849-0.798-1.361s-0.26-1.059-0.257-1.639v-1.289h1.023v1.289C15.661,22.054,15.735,22.443,15.888,22.818z
				 M19.111,26.09h-1.21v-6.17h1.21V26.09z M20.528,23.45H18.71v-1.069h1.818V23.45z M21.411,26.147h-1.239v-6.406h1.239V26.147z"/>
		</g>
	</g>
</g>
</svg>
