<svg width="40" height="40" viewBox="0 0 40 40" fill="none" xmlns="http://www.w3.org/2000/svg">
<path d="M34.1673 18.8332V11.7333C34.1673 5.0166 32.6007 3.33325 26.3007 3.33325H13.7007C7.40065 3.33325 5.83398 5.0166 5.83398 11.7333V30.4999C5.83398 34.9332 8.26734 35.9833 11.2173 32.8166L11.234 32.7999C12.6006 31.3499 14.684 31.4666 15.8673 33.0499L17.5507 35.2999" stroke="white" stroke-width="1.5" stroke-linecap="round" stroke-linejoin="round"/>
<path d="M13.334 11.6665H26.6673" stroke="white" stroke-width="1.5" stroke-linecap="round" stroke-linejoin="round"/>
<path d="M15 18.3335H25" stroke="white" stroke-width="1.5" stroke-linecap="round" stroke-linejoin="round"/>
<path d="M30.351 24.6171L24.4511 30.5171C24.2177 30.7505 24.001 31.1838 23.951 31.5005L23.6344 33.7505C23.5177 34.5671 24.0844 35.1338 24.901 35.0172L27.1511 34.7005C27.4677 34.6505 27.9177 34.4338 28.1344 34.2005L34.0344 28.3005C35.0511 27.2838 35.5344 26.1005 34.0344 24.6005C32.5511 23.1172 31.3677 23.6005 30.351 24.6171Z" stroke="#EEEEEE" stroke-width="1.5" stroke-miterlimit="10" stroke-linecap="round" stroke-linejoin="round"/>
<path d="M29.498 25.4673C29.998 27.2673 31.398 28.6673 33.198 29.1673" stroke="#EEEEEE" stroke-width="1.5" stroke-miterlimit="10" stroke-linecap="round" stroke-linejoin="round"/>
</svg>
