<svg width="40" height="40" viewBox="0 0 40 40" fill="none" xmlns="http://www.w3.org/2000/svg">
<path d="M30.0008 11.9333C29.9008 11.9166 29.7841 11.9166 29.6841 11.9333C27.3841 11.8499 25.5508 9.96659 25.5508 7.63325C25.5508 5.24992 27.4674 3.33325 29.8508 3.33325C32.2341 3.33325 34.1508 5.26659 34.1508 7.63325C34.1341 9.96659 32.3008 11.8499 30.0008 11.9333Z" stroke="white" stroke-width="1.5" stroke-linecap="round" stroke-linejoin="round"/>
<path d="M28.2844 24.0666C30.5677 24.4499 33.0844 24.0499 34.8511 22.8666C37.2011 21.2999 37.2011 18.7333 34.8511 17.1666C33.0677 15.9833 30.5177 15.5833 28.2344 15.9833" stroke="white" stroke-width="1.5" stroke-linecap="round" stroke-linejoin="round"/>
<path d="M9.95078 11.9333C10.0508 11.9166 10.1674 11.9166 10.2674 11.9333C12.5674 11.8499 14.4008 9.96659 14.4008 7.63325C14.4008 5.24992 12.4841 3.33325 10.1008 3.33325C7.71745 3.33325 5.80078 5.26659 5.80078 7.63325C5.81745 9.96659 7.65078 11.8499 9.95078 11.9333Z" stroke="white" stroke-width="1.5" stroke-linecap="round" stroke-linejoin="round"/>
<path d="M11.6671 24.0666C9.38372 24.4499 6.86706 24.0499 5.10039 22.8666C2.75039 21.2999 2.75039 18.7333 5.10039 17.1666C6.88372 15.9833 9.43372 15.5833 11.7171 15.9833" stroke="white" stroke-width="1.5" stroke-linecap="round" stroke-linejoin="round"/>
<path d="M19.9988 24.3832C19.8988 24.3665 19.7822 24.3665 19.6822 24.3832C17.3822 24.2999 15.5488 22.4165 15.5488 20.0832C15.5488 17.6999 17.4655 15.7832 19.8488 15.7832C22.2322 15.7832 24.1488 17.7165 24.1488 20.0832C24.1322 22.4165 22.2988 24.3165 19.9988 24.3832Z" stroke="#EEEEEE" stroke-width="1.5" stroke-linecap="round" stroke-linejoin="round"/>
<path d="M15.1492 29.6331C12.7992 31.1998 12.7992 33.7664 15.1492 35.3331C17.8159 37.1164 22.1826 37.1164 24.8492 35.3331C27.1992 33.7664 27.1992 31.1998 24.8492 29.6331C22.1992 27.8664 17.8159 27.8664 15.1492 29.6331Z" stroke="#EEEEEE" stroke-width="1.5" stroke-linecap="round" stroke-linejoin="round"/>
</svg>
