<svg width="40" height="40" viewBox="0 0 40 40" fill="none" xmlns="http://www.w3.org/2000/svg">
<path d="M18.4092 8.76172V8.01172H18.4091L18.4092 8.76172ZM20.6875 17.4463H19.9375C19.9375 17.7532 20.1245 18.0291 20.4095 18.1429C20.6945 18.2566 21.0201 18.1852 21.2314 17.9627L20.6875 17.4463ZM22.499 16.666V15.916H22.4989L22.499 16.666ZM24.9658 18.7764L24.2249 18.8925C24.2661 19.1554 24.4435 19.3767 24.6911 19.4742C24.9387 19.5717 25.2194 19.5307 25.4287 19.3665L24.9658 18.7764ZM26.25 18.332L26.2501 17.582H26.25V18.332ZM28.2588 19.873L27.5346 20.0681C27.6037 20.3247 27.8035 20.5256 28.0598 20.5962C28.3161 20.6667 28.5906 20.5963 28.7813 20.4111L28.2588 19.873ZM29.999 19.166V18.416H29.9989L29.999 19.166ZM32.499 21.666H33.249H32.499ZM32.499 30.2939L33.249 30.294V30.2939H32.499ZM28.333 34.9668L28.2479 34.2216C27.8691 34.2649 27.583 34.5855 27.583 34.9668H28.333ZM28.333 34.999V35.749C28.7472 35.749 29.083 35.4132 29.083 34.999H28.333ZM19.999 34.999H19.249C19.249 35.4132 19.5848 35.749 19.999 35.749V34.999ZM19.999 34.5303H20.749C20.749 34.1742 20.4987 33.8672 20.1499 33.7956L19.999 34.5303ZM17.4795 33.1582L16.9453 33.6847L16.9454 33.6847L17.4795 33.1582ZM12.1787 27.7803L12.7129 27.2538L12.7129 27.2538L12.1787 27.7803ZM12.1768 23.9131L11.6422 23.3871L11.6421 23.3871L12.1768 23.9131ZM15.9863 23.9111L15.4522 24.4377L15.4525 24.4379L15.9863 23.9111ZM16.1309 24.0576L15.597 24.5844C15.8107 24.801 16.1341 24.867 16.4155 24.7515C16.697 24.636 16.8809 24.3619 16.8809 24.0576H16.1309ZM18.4092 8.76172V9.51172C19.2532 9.51172 19.9375 10.196 19.9375 11.04H20.6875H21.4375C21.4375 9.36756 20.0817 8.01172 18.4092 8.01172V8.76172ZM20.6875 11.04H19.9375V17.4463H20.6875H21.4375V11.04H20.6875ZM20.6875 17.4463L21.2314 17.9627C21.5522 17.6248 22.0009 17.4161 22.4991 17.416L22.499 16.666L22.4989 15.916C21.5698 15.9162 20.7337 16.3083 20.1436 16.9299L20.6875 17.4463ZM22.499 16.666V17.416C23.3706 17.416 24.0936 18.055 24.2249 18.8925L24.9658 18.7764L25.7068 18.6602C25.4633 17.1069 24.1234 15.916 22.499 15.916V16.666ZM24.9658 18.7764L25.4287 19.3665C25.6565 19.1878 25.9404 19.082 26.25 19.082V18.332V17.582C25.5901 17.582 24.9831 17.8096 24.5029 18.1863L24.9658 18.7764ZM26.25 18.332L26.2499 19.082C26.8633 19.0821 27.3812 19.4984 27.5346 20.0681L28.2588 19.873L28.983 19.678C28.6586 18.4733 27.5619 17.5822 26.2501 17.582L26.25 18.332ZM28.2588 19.873L28.7813 20.4111C29.0977 20.1039 29.5259 19.9161 29.9991 19.916L29.999 19.166L29.9989 18.416C29.1184 18.4162 28.3201 18.7682 27.7363 19.335L28.2588 19.873ZM29.999 19.166V19.916C30.9655 19.916 31.749 20.6995 31.749 21.666H32.499H33.249C33.249 19.8711 31.7939 18.416 29.999 18.416V19.166ZM32.499 21.666H31.749V30.2939H32.499H33.249V21.666H32.499ZM32.499 30.2939L31.749 30.2939C31.7488 32.3242 30.2185 33.9967 28.2479 34.2216L28.333 34.9668L28.4181 35.712C31.1369 35.4015 33.2487 33.0962 33.249 30.294L32.499 30.2939ZM28.333 34.9668H27.583V34.999H28.333H29.083V34.9668H28.333ZM28.333 34.999V34.249H19.999V34.999V35.749H28.333V34.999ZM19.999 34.999H20.749V34.5303H19.999H19.249V34.999H19.999ZM19.999 34.5303L20.1499 33.7956C19.3683 33.6351 18.6222 33.2491 18.0136 32.6317L17.4795 33.1582L16.9454 33.6847C17.7687 34.5199 18.784 35.0465 19.8482 35.2649L19.999 34.5303ZM17.4795 33.1582L18.0136 32.6317L12.7129 27.2538L12.1787 27.7803L11.6446 28.3068L16.9453 33.6847L17.4795 33.1582ZM12.1787 27.7803L12.7129 27.2538C11.9481 26.478 11.9475 25.2155 12.7114 24.4391L12.1768 23.9131L11.6421 23.3871C10.3035 24.7478 10.3047 26.9474 11.6446 28.3068L12.1787 27.7803ZM12.1768 23.9131L12.7114 24.4391C13.4692 23.6689 14.6937 23.6683 15.4522 24.4377L15.9863 23.9111L16.5204 23.3846C15.174 22.0188 12.9872 22.0201 11.6422 23.3871L12.1768 23.9131ZM15.9863 23.9111L15.4525 24.4379L15.597 24.5844L16.1309 24.0576L16.6647 23.5309L16.5202 23.3844L15.9863 23.9111ZM16.1309 24.0576H16.8809V11.04H16.1309H15.3809V24.0576H16.1309ZM16.1309 11.04H16.8809C16.8809 10.1962 17.5652 9.51186 18.4093 9.51172L18.4092 8.76172L18.4091 8.01172C16.737 8.01201 15.3809 9.36756 15.3809 11.04H16.1309Z" fill="white"/>
<rect x="18.332" y="35" width="12.5" height="4.16667" rx="2" stroke="white" stroke-width="1.5"/>
<path d="M18.332 4.16732V0.833984" stroke="#EEEEEE" stroke-width="1.5" stroke-linecap="round"/>
<path d="M23.9434 6.94272L26.7051 4.13867" stroke="#EEEEEE" stroke-width="1.5" stroke-linecap="round"/>
<path d="M12.8769 6.94272L10.1152 4.13867" stroke="#EEEEEE" stroke-width="1.5" stroke-linecap="round"/>
<path d="M26.6667 12.5L30 12.5" stroke="#EEEEEE" stroke-width="1.5" stroke-linecap="round"/>
<path d="M10.0013 12.5L6.66797 12.5" stroke="#EEEEEE" stroke-width="1.5" stroke-linecap="round"/>
</svg>
