<svg width="24" height="26" viewBox="0 0 24 26" fill="none" xmlns="http://www.w3.org/2000/svg">
<path d="M11.0469 6.25684L11.047 5.50684H11.0469V6.25684ZM12.4131 11.4668H11.6631C11.6631 11.7737 11.85 12.0496 12.135 12.1633C12.42 12.2771 12.7455 12.2058 12.9569 11.9833L12.4131 11.4668ZM13.501 10.999L13.5012 10.249H13.501V10.999ZM14.9805 12.2656L14.2395 12.3817C14.2807 12.6446 14.4581 12.866 14.7057 12.9635C14.9533 13.061 15.234 13.02 15.4433 12.8558L14.9805 12.2656ZM15.751 11.999L15.7511 11.249H15.751V11.999ZM16.9561 12.9229L16.232 13.1183C16.3012 13.3748 16.501 13.5755 16.7572 13.646C17.0133 13.7165 17.2877 13.6461 17.4783 13.4611L16.9561 12.9229ZM18.001 12.499L18.0012 11.749H18.001V12.499ZM19.501 13.999H20.251V13.9988L19.501 13.999ZM17.001 21.9785L16.9158 21.2334C16.537 21.2767 16.251 21.5973 16.251 21.9785H17.001ZM17.001 21.999V22.749C17.4152 22.749 17.751 22.4132 17.751 21.999H17.001ZM12.001 21.999H11.251C11.251 22.4132 11.5868 22.749 12.001 22.749V21.999ZM12.001 21.6152H12.751C12.751 21.2545 12.4942 20.9449 12.1397 20.8782L12.001 21.6152ZM10.3076 20.7109L10.8417 20.1844L10.8417 20.1844L10.3076 20.7109ZM7.30762 17.668L6.77338 18.1944L6.77353 18.1945L7.30762 17.668ZM7.30664 15.3477L6.77204 14.8216L6.77195 14.8217L7.30664 15.3477ZM9.59277 15.3467L9.05868 15.8732L9.05949 15.874L9.59277 15.3467ZM9.67969 15.4346L9.1464 15.9619C9.36024 16.1782 9.68348 16.2439 9.96476 16.1283C10.246 16.0127 10.4297 15.7387 10.4297 15.4346H9.67969ZM11.0469 6.25684L11.0467 7.00684C11.3869 7.00691 11.6631 7.28284 11.6631 7.62402H12.4131H13.1631C13.1631 6.45548 12.2165 5.50709 11.047 5.50684L11.0469 6.25684ZM12.4131 7.62402H11.6631V11.4668H12.4131H13.1631V7.62402H12.4131ZM12.4131 11.4668L12.9569 11.9833C13.095 11.8379 13.2876 11.749 13.501 11.749V10.999V10.249C12.8581 10.249 12.2778 10.5202 11.8693 10.9503L12.4131 11.4668ZM13.501 10.999L13.5007 11.749C13.8727 11.7491 14.1832 12.0222 14.2395 12.3817L14.9805 12.2656L15.7214 12.1495C15.553 11.0749 14.6264 10.2494 13.5012 10.249L13.501 10.999ZM14.9805 12.2656L15.4433 12.8558C15.5295 12.7881 15.6354 12.749 15.751 12.749V11.999V11.249C15.285 11.249 14.8561 11.41 14.5176 11.6755L14.9805 12.2656ZM15.751 11.999L15.7508 12.749C15.9792 12.7491 16.1741 12.9038 16.232 13.1183L16.9561 12.9229L17.6801 12.7274C17.4509 11.8781 16.6773 11.2492 15.7511 11.249L15.751 11.999ZM16.9561 12.9229L17.4783 13.4611C17.6144 13.3291 17.798 13.249 18.001 13.249V12.499V11.749C17.3919 11.749 16.8379 11.9925 16.4338 12.3846L16.9561 12.9229ZM18.001 12.499L18.0007 13.249C18.4148 13.2492 18.7509 13.5852 18.751 13.9992L19.501 13.999L20.251 13.9988C20.2507 12.7566 19.2433 11.7494 18.0012 11.749L18.001 12.499ZM19.501 13.999H18.751V19.1758H19.501H20.251V13.999H19.501ZM19.501 19.1758H18.751C18.751 20.2388 17.9491 21.1152 16.9158 21.2334L17.001 21.9785L17.0862 22.7237C18.8662 22.5201 20.251 21.0122 20.251 19.1758H19.501ZM17.001 21.9785H16.251V21.999H17.001H17.751V21.9785H17.001ZM17.001 21.999V21.249H12.001V21.999V22.749H17.001V21.999ZM12.001 21.999H12.751V21.6152H12.001H11.251V21.999H12.001ZM12.001 21.6152L12.1397 20.8782C11.6654 20.7889 11.2111 20.5591 10.8417 20.1844L10.3076 20.7109L9.77352 21.2375C10.3637 21.8361 11.0965 22.2082 11.8623 22.3523L12.001 21.6152ZM10.3076 20.7109L10.8417 20.1844L7.8417 17.1414L7.30762 17.668L6.77353 18.1945L9.77353 21.2375L10.3076 20.7109ZM7.30762 17.668L7.84185 17.1416C7.49825 16.7929 7.498 16.2226 7.84133 15.8736L7.30664 15.3477L6.77195 14.8217C5.85413 15.7548 5.85474 17.262 6.77338 18.1944L7.30762 17.668ZM7.30664 15.3477L7.84124 15.8737C8.17841 15.531 8.72105 15.5307 9.05868 15.8732L9.59277 15.3467L10.1269 14.8201C9.20152 13.8815 7.69664 13.882 6.77204 14.8216L7.30664 15.3477ZM9.59277 15.3467L9.05949 15.874L9.1464 15.9619L9.67969 15.4346L10.213 14.9072L10.1261 14.8193L9.59277 15.3467ZM9.67969 15.4346H10.4297V7.62402H9.67969H8.92969V15.4346H9.67969ZM9.67969 7.62402H10.4297C10.4297 7.28328 10.7061 7.00684 11.0469 7.00684V6.25684V5.50684C9.8777 5.50684 8.92969 6.45485 8.92969 7.62402H9.67969Z" fill="white"/>
<rect x="11" y="22" width="7.5" height="2.5" rx="1.25" stroke="white" stroke-width="1.5"/>
<path d="M11 3.50049V1.50049" stroke="#EEEEEE" stroke-width="1.5" stroke-linecap="round"/>
<path d="M14.3664 5.16582L16.0234 3.4834" stroke="#EEEEEE" stroke-width="1.5" stroke-linecap="round"/>
<path d="M7.72539 5.16582L6.06836 3.4834" stroke="#EEEEEE" stroke-width="1.5" stroke-linecap="round"/>
<path d="M16 8.5L18 8.5" stroke="#EEEEEE" stroke-width="1.5" stroke-linecap="round"/>
<path d="M6 8.5L4 8.5" stroke="#EEEEEE" stroke-width="1.5" stroke-linecap="round"/>
</svg>
