<svg width="24" height="24" viewBox="0 0 24 24" fill="none" xmlns="http://www.w3.org/2000/svg">
<path d="M10.7516 16.8633V18.8933C10.7516 20.6133 9.15158 22.0033 7.18158 22.0033C5.21158 22.0033 3.60156 20.6133 3.60156 18.8933V16.8633C3.60156 18.5833 5.20158 19.8033 7.18158 19.8033C9.15158 19.8033 10.7516 18.5733 10.7516 16.8633Z" stroke="#333333" stroke-width="1.5" stroke-linecap="round" stroke-linejoin="round"/>
<path d="M10.7498 14.1078C10.7498 14.6078 10.6098 15.0678 10.3698 15.4678C9.77981 16.4378 8.5698 17.0478 7.1698 17.0478C5.7698 17.0478 4.55979 16.4278 3.96979 15.4678C3.72979 15.0678 3.58984 14.6078 3.58984 14.1078C3.58984 13.2478 3.98982 12.4778 4.62982 11.9178C5.27982 11.3478 6.16979 11.0078 7.15979 11.0078C8.14979 11.0078 9.03982 11.3578 9.68982 11.9178C10.3498 12.4678 10.7498 13.2478 10.7498 14.1078Z" stroke="#333333" stroke-width="1.5" stroke-linecap="round" stroke-linejoin="round"/>
<path d="M10.7516 14.1139V16.8639C10.7516 18.5839 9.15158 19.8039 7.18158 19.8039C5.21158 19.8039 3.60156 18.5739 3.60156 16.8639V14.1139C3.60156 12.3939 5.20158 11.0039 7.18158 11.0039C8.17158 11.0039 9.06161 11.3539 9.71161 11.9139C10.3516 12.4739 10.7516 13.2539 10.7516 14.1139Z" stroke="#333333" stroke-width="1.5" stroke-linecap="round" stroke-linejoin="round"/>
<path d="M22.0002 10.9692V13.0292C22.0002 13.5792 21.5602 14.0292 21.0002 14.0492H19.0402C17.9602 14.0492 16.9702 13.2592 16.8802 12.1792C16.8202 11.5492 17.0602 10.9592 17.4802 10.5492C17.8502 10.1692 18.3602 9.94922 18.9202 9.94922H21.0002C21.5602 9.96922 22.0002 10.4192 22.0002 10.9692Z" stroke="#333333" stroke-width="1.5" stroke-linecap="round" stroke-linejoin="round"/>
<path d="M2 10.5039V8.50391C2 5.78391 3.64 3.8839 6.19 3.5639C6.45 3.5239 6.72 3.50391 7 3.50391H16C16.26 3.50391 16.51 3.51389 16.75 3.55389C19.33 3.85389 21 5.76391 21 8.50391V9.95392H18.92C18.36 9.95392 17.85 10.1739 17.48 10.5539C17.06 10.9639 16.82 11.5539 16.88 12.1839C16.97 13.2639 17.96 14.0539 19.04 14.0539H21V15.5039C21 18.5039 19 20.5039 16 20.5039H13.5" stroke="#333333" stroke-width="1.5" stroke-linecap="round" stroke-linejoin="round"/>
</svg>
