<svg width="24" height="24" viewBox="0 0 24 24" fill="none" xmlns="http://www.w3.org/2000/svg">
<path d="M12 22C17.5 22 22 17.5 22 12C22 6.5 17.5 2 12 2C6.5 2 2 6.5 2 12C2 17.5 6.5 22 12 22Z" fill="#4D65E1"/>
<path d="M12.445 11.81L11.035 13.22C10.255 14 10.255 15.27 11.035 16.05C11.815 16.83 13.085 16.83 13.865 16.05L16.085 13.83C17.645 12.27 17.645 9.74 16.085 8.17C14.525 6.61 11.995 6.61 10.425 8.17L8.005 10.59C6.665 11.93 6.665 14.1 8.005 15.44" stroke="white" stroke-width="1.5" stroke-linecap="round" stroke-linejoin="round"/>
</svg>
