<svg width="48" height="48" viewBox="0 0 48 48" fill="none" xmlns="http://www.w3.org/2000/svg">
<path d="M18 44H30C40 44 44 40 44 30V18C44 8 40 4 30 4H18C8 4 4 8 4 18V30C4 40 8 44 18 44Z" fill="#3F58D4"/>
<path d="M16.7627 20.1016L16.6231 19.5696L16.6228 19.5697L16.7627 20.1016ZM21.0166 22.0645L20.5641 22.3771L20.7807 22.6905L21.1502 22.598L21.0166 22.0645ZM22.7627 21.8496V21.2996V21.8496ZM25.6279 21.8496L25.628 21.2996H25.6279V21.8496ZM32.79 29.0117H33.34V29.0117L32.79 29.0117ZM30.2891 34.4492L30.6472 34.8666L30.6472 34.8666L30.2891 34.4492ZM30.166 35.1074L30.6427 34.833L30.6426 34.8329L30.166 35.1074ZM30.627 35.9082L30.1503 36.1826L30.1506 36.1831L30.627 35.9082ZM30.4443 36.5908L30.1693 36.1145L30.1693 36.1145L30.4443 36.5908ZM28.209 37.8818L28.4838 38.3582L28.4841 38.3581L28.209 37.8818ZM27.5264 37.6982L28.0026 37.4232L28.0026 37.4231L27.5264 37.6982ZM26.7744 36.3965L26.2981 36.6716L26.2982 36.6716L26.7744 36.3965ZM26.2725 36.1445L26.3236 36.6921L26.3237 36.6921L26.2725 36.1445ZM25.6279 36.1748V36.7248H25.628L25.6279 36.1748ZM22.7627 36.1748V36.7248V36.1748ZM22.3271 36.1611L22.2929 36.7101L22.2929 36.7101L22.3271 36.1611ZM21.8408 36.415L21.3646 36.1398L21.3644 36.1402L21.8408 36.415ZM21.1006 37.6982L21.5767 37.9735L21.577 37.9731L21.1006 37.6982ZM20.417 37.8809L20.1419 38.3571L20.142 38.3572L20.417 37.8809ZM18.1816 36.5898L17.9062 37.0659L17.9066 37.0661L18.1816 36.5898ZM17.999 35.9072L18.4754 36.1822L18.4754 36.1821L17.999 35.9072ZM18.3838 35.2402L18.8602 35.5151L18.8603 35.5149L18.3838 35.2402ZM18.249 34.5723L18.5958 34.1454L18.5957 34.1453L18.249 34.5723ZM16.9639 33.2168L17.4088 32.8935L17.4087 32.8934L16.9639 33.2168ZM16.5449 32.998L16.5449 32.448H16.5449V32.998ZM15.5 32.998V33.548V32.998ZM14 30.498L13.45 30.498V30.498H14ZM15.5 28.998V28.448V28.998ZM15.6006 28.8984L16.1505 28.9085L16.1505 28.907L15.6006 28.8984ZM17.668 23.9795L18.0592 24.3661L18.3022 24.1202L18.186 23.7946L17.668 23.9795ZM16.4902 20.6797L15.9722 20.8646L15.9722 20.8646L16.4902 20.6797ZM16.7627 20.1016L16.9022 20.6336C17.7183 20.4195 19.2597 20.4891 20.5641 22.3771L21.0166 22.0645L21.4691 21.7518C19.8815 19.4538 17.8516 19.2473 16.6231 19.5696L16.7627 20.1016ZM21.0166 22.0645L21.1502 22.598C21.6661 22.4687 22.2061 22.3996 22.7627 22.3996V21.8496V21.2996C22.1147 21.2996 21.4849 21.3801 20.883 21.5309L21.0166 22.0645ZM22.7627 21.8496V22.3996H25.6279V21.8496V21.2996H22.7627V21.8496ZM25.6279 21.8496L25.6279 22.3996C29.2795 22.3998 32.2398 25.3601 32.24 29.0118L32.79 29.0117L33.34 29.0117C33.3397 24.7526 29.8871 21.2999 25.628 21.2996L25.6279 21.8496ZM32.79 29.0117H32.24C32.24 31.0198 31.3452 32.8183 29.9309 34.0318L30.2891 34.4492L30.6472 34.8666C32.2946 33.4531 33.34 31.3543 33.34 29.0117H32.79ZM30.2891 34.4492L29.9309 34.0318C29.5547 34.3546 29.4216 34.917 29.6894 35.3819L30.166 35.1074L30.6426 34.8329C30.6455 34.838 30.6477 34.8441 30.6486 34.8501C30.6495 34.8558 30.6491 34.86 30.6487 34.8624C30.6479 34.8666 30.6465 34.8672 30.6472 34.8666L30.2891 34.4492ZM30.166 35.1074L29.6893 35.3818L30.1503 36.1826L30.627 35.9082L31.1036 35.6338L30.6427 34.833L30.166 35.1074ZM30.627 35.9082L30.1506 36.1831C30.1371 36.1597 30.1448 36.1287 30.1693 36.1145L30.4443 36.5908L30.7194 37.0671C31.222 36.7768 31.3927 36.1349 31.1034 35.6334L30.627 35.9082ZM30.4443 36.5908L30.1693 36.1145L27.9339 37.4056L28.209 37.8818L28.4841 38.3581L30.7194 37.0671L30.4443 36.5908ZM28.209 37.8818L27.9341 37.4054C27.9591 37.391 27.9894 37.4003 28.0026 37.4232L27.5264 37.6982L27.0501 37.9733C27.3394 38.4742 27.9806 38.6485 28.4838 38.3582L28.209 37.8818ZM27.5264 37.6982L28.0026 37.4231L27.2507 36.1214L26.7744 36.3965L26.2982 36.6716L27.0501 37.9733L27.5264 37.6982ZM26.7744 36.3965L27.2507 36.1214C27.0344 35.7469 26.6227 35.5594 26.2213 35.5969L26.2725 36.1445L26.3237 36.6921C26.3235 36.6922 26.3212 36.6924 26.317 36.6903C26.3121 36.6878 26.3041 36.6819 26.2981 36.6716L26.7744 36.3965ZM26.2725 36.1445L26.2213 35.5969C26.0255 35.6152 25.8276 35.6248 25.6279 35.6248L25.6279 36.1748L25.628 36.7248C25.8629 36.7248 26.0949 36.7135 26.3236 36.6921L26.2725 36.1445ZM25.6279 36.1748V35.6248H22.7627V36.1748V36.7248H25.6279V36.1748ZM22.7627 36.1748V35.6248C22.6282 35.6248 22.4944 35.6205 22.3613 35.6122L22.3271 36.1611L22.2929 36.7101C22.448 36.7197 22.6047 36.7248 22.7627 36.7248V36.1748ZM22.3271 36.1611L22.3614 35.6122C21.9699 35.5878 21.5746 35.7765 21.3646 36.1398L21.8408 36.415L22.317 36.6903C22.3113 36.7002 22.3038 36.7058 22.2993 36.7082C22.2953 36.7102 22.2932 36.7101 22.2929 36.7101L22.3271 36.1611ZM21.8408 36.415L21.3644 36.1402L20.6242 37.4234L21.1006 37.6982L21.577 37.9731L22.3172 36.6899L21.8408 36.415ZM21.1006 37.6982L20.6244 37.4229C20.6386 37.3985 20.6686 37.3911 20.692 37.4045L20.417 37.8809L20.142 38.3572C20.6435 38.6467 21.2863 38.4758 21.5767 37.9735L21.1006 37.6982ZM20.417 37.8809L20.6921 37.4046L18.4567 36.1136L18.1816 36.5898L17.9066 37.0661L20.1419 38.3571L20.417 37.8809ZM18.1816 36.5898L18.4571 36.1138C18.4809 36.1276 18.4892 36.1582 18.4754 36.1822L17.999 35.9072L17.5227 35.6323C17.2329 36.1342 17.4047 36.7758 17.9062 37.0659L18.1816 36.5898ZM17.999 35.9072L18.4754 36.1821L18.8602 35.5151L18.3838 35.2402L17.9074 34.9654L17.5226 35.6324L17.999 35.9072ZM18.3838 35.2402L18.8603 35.5149C19.1346 35.0391 18.9879 34.464 18.5958 34.1454L18.249 34.5723L17.9022 34.9991C17.903 34.9998 17.9019 34.9995 17.9011 34.9958C17.9007 34.9936 17.9002 34.9894 17.9011 34.9835C17.902 34.9773 17.9042 34.9709 17.9073 34.9656L18.3838 35.2402ZM18.249 34.5723L18.5957 34.1453C18.1478 33.7815 17.7482 33.3605 17.4088 32.8935L16.9639 33.2168L16.5189 33.5401C16.9149 34.0849 17.3806 34.5755 17.9023 34.9992L18.249 34.5723ZM16.9639 33.2168L17.4087 32.8934C17.2145 32.6263 16.8995 32.448 16.5449 32.448L16.5449 32.998L16.5449 33.548C16.535 33.548 16.5274 33.5454 16.5233 33.5433C16.5196 33.5413 16.5187 33.5398 16.519 33.5402L16.9639 33.2168ZM16.5449 32.998V32.448H15.5V32.998V33.548H16.5449V32.998ZM15.5 32.998V32.448C14.9753 32.448 14.55 32.0227 14.55 31.498H14H13.45C13.45 32.6302 14.3678 33.548 15.5 33.548V32.998ZM14 31.498H14.55V30.498H14H13.45V31.498H14ZM14 30.498L14.55 30.4981C14.55 29.9734 14.9754 29.548 15.5 29.548V28.998V28.448C14.3678 28.448 13.4501 29.366 13.45 30.498L14 30.498ZM15.5 28.998V29.548C15.861 29.548 16.1441 29.257 16.1505 28.9085L15.6006 28.8984L15.0507 28.8884C15.0551 28.6497 15.2489 28.448 15.5 28.448V28.998ZM15.6006 28.8984L16.1505 28.907C16.1782 27.1376 16.9013 25.538 18.0592 24.3661L17.668 23.9795L17.2767 23.5929C15.9279 24.9581 15.0829 26.8253 15.0507 28.8898L15.6006 28.8984ZM17.668 23.9795L18.186 23.7946L17.0082 20.4948L16.4902 20.6797L15.9722 20.8646L17.15 24.1644L17.668 23.9795ZM16.4902 20.6797L17.0082 20.4948C17.0115 20.5041 17.0148 20.5233 17.0025 20.5506C16.9959 20.5652 16.9843 20.583 16.9654 20.5995C16.9457 20.6167 16.9232 20.628 16.9026 20.6335L16.7627 20.1016L16.6228 19.5697C16.0002 19.7334 15.8008 20.3842 15.9722 20.8646L16.4902 20.6797Z" fill="white"/>
<path d="M31 24C31.6667 23.8333 33 23.2 33 22" stroke="white" stroke-width="1.1" stroke-linecap="round"/>
<circle cx="19" cy="28" r="1" fill="white"/>
<path d="M23 24H26" stroke="white" stroke-width="1.1" stroke-linecap="round"/>
<path d="M21.2969 14.2578C21.2969 13.9817 21.5207 13.7578 21.7969 13.7578C22.073 13.7578 22.2969 13.9817 22.2969 14.2578C22.2969 15.1349 23.1313 15.8994 24.3984 15.8994C25.6655 15.8994 26.5 15.1349 26.5 14.2578C26.5 13.9817 26.7239 13.7578 27 13.7578C27.2761 13.7578 27.5 13.9817 27.5 14.2578V15.7383C27.5 17.3266 26.0434 18.5 24.3984 18.5C22.7535 18.5 21.2969 17.3266 21.2969 15.7383V14.2578Z" fill="#3F58D4" stroke="white" stroke-linecap="round" stroke-linejoin="round"/>
<path d="M24.3984 11.5C25.139 11.5 25.8205 11.7426 26.3574 12.1523L26.5791 12.3379L26.582 12.3418C27.1404 12.8671 27.5 13.5976 27.5 14.416C27.5 14.8922 27.3775 15.3372 27.1582 15.7207L27.1572 15.7197C26.6264 16.6519 25.5654 17.2041 24.3984 17.2041C23.2315 17.2041 22.1704 16.6519 21.6396 15.7197C21.4204 15.3363 21.2969 14.8921 21.2969 14.416C21.2969 13.598 21.6555 12.8658 22.2158 12.3438C22.7809 11.8167 23.5518 11.5 24.3984 11.5Z" fill="#3F58D4" stroke="white" stroke-linecap="round" stroke-linejoin="round"/>
</svg>
