<svg width="48" height="48" viewBox="0 0 48 48" fill="none" xmlns="http://www.w3.org/2000/svg">
<path d="M18 44H30C40 44 44 40 44 30V18C44 8 40 4 30 4H18C8 4 4 8 4 18V30C4 40 8 44 18 44Z" fill="#19B3BD"/>
<path d="M16.7627 20.1017L16.6231 19.5697L16.6228 19.5698L16.7627 20.1017ZM21.0166 22.0646L20.5641 22.3772L20.7807 22.6907L21.1502 22.5981L21.0166 22.0646ZM22.7627 21.8498V21.2998V21.8498ZM25.6279 21.8498L25.628 21.2998H25.6279V21.8498ZM32.79 29.0119H33.34V29.0118L32.79 29.0119ZM30.2891 34.4494L30.6472 34.8668L30.6472 34.8668L30.2891 34.4494ZM30.166 35.1076L30.6427 34.8332L30.6426 34.8331L30.166 35.1076ZM30.627 35.9084L30.1503 36.1827L30.1506 36.1832L30.627 35.9084ZM30.4443 36.591L30.1693 36.1147L30.1693 36.1147L30.4443 36.591ZM28.209 37.882L28.4838 38.3584L28.4841 38.3583L28.209 37.882ZM27.5264 37.6984L28.0026 37.4233L28.0026 37.4233L27.5264 37.6984ZM26.7744 36.3966L26.2981 36.6717L26.2982 36.6717L26.7744 36.3966ZM26.2725 36.1447L26.3236 36.6923L26.3237 36.6923L26.2725 36.1447ZM25.6279 36.175V36.725H25.628L25.6279 36.175ZM22.7627 36.175V36.725V36.175ZM22.3271 36.1613L22.2929 36.7102L22.2929 36.7102L22.3271 36.1613ZM21.8408 36.4152L21.3646 36.14L21.3644 36.1404L21.8408 36.4152ZM21.1006 37.6984L21.5767 37.9737L21.577 37.9732L21.1006 37.6984ZM20.417 37.881L20.1419 38.3573L20.142 38.3573L20.417 37.881ZM18.1816 36.59L17.9062 37.0661L17.9066 37.0663L18.1816 36.59ZM17.999 35.9074L18.4754 36.1823L18.4754 36.1822L17.999 35.9074ZM18.3838 35.2404L18.8602 35.5152L18.8603 35.5151L18.3838 35.2404ZM18.249 34.5724L18.5958 34.1455L18.5957 34.1455L18.249 34.5724ZM16.9639 33.217L17.4088 32.8936L17.4087 32.8935L16.9639 33.217ZM16.5449 32.9982L16.5449 32.4482H16.5449V32.9982ZM15.5 32.9982V33.5482V32.9982ZM14 30.4982L13.45 30.4982V30.4982H14ZM15.5 28.9982V28.4482V28.9982ZM15.6006 28.8986L16.1505 28.9087L16.1505 28.9072L15.6006 28.8986ZM17.668 23.9796L18.0592 24.3662L18.3022 24.1203L18.186 23.7948L17.668 23.9796ZM16.4902 20.6798L15.9722 20.8647L15.9722 20.8647L16.4902 20.6798ZM16.7627 20.1017L16.9022 20.6337C17.7183 20.4197 19.2597 20.4892 20.5641 22.3772L21.0166 22.0646L21.4691 21.752C19.8815 19.454 17.8516 19.2475 16.6231 19.5697L16.7627 20.1017ZM21.0166 22.0646L21.1502 22.5981C21.6661 22.4689 22.2061 22.3998 22.7627 22.3998V21.8498V21.2998C22.1147 21.2998 21.4849 21.3803 20.883 21.5311L21.0166 22.0646ZM22.7627 21.8498V22.3998H25.6279V21.8498V21.2998H22.7627V21.8498ZM25.6279 21.8498L25.6279 22.3998C29.2795 22.4 32.2398 25.3603 32.24 29.0119L32.79 29.0119L33.34 29.0118C33.3397 24.7528 29.8871 21.3 25.628 21.2998L25.6279 21.8498ZM32.79 29.0119H32.24C32.24 31.0199 31.3452 32.8184 29.9309 34.032L30.2891 34.4494L30.6472 34.8668C32.2946 33.4533 33.34 31.3544 33.34 29.0119H32.79ZM30.2891 34.4494L29.9309 34.032C29.5547 34.3547 29.4216 34.9171 29.6894 35.3821L30.166 35.1076L30.6426 34.8331C30.6455 34.8381 30.6477 34.8442 30.6486 34.8502C30.6495 34.856 30.6491 34.8601 30.6487 34.8626C30.6479 34.8667 30.6465 34.8674 30.6472 34.8668L30.2891 34.4494ZM30.166 35.1076L29.6893 35.382L30.1503 36.1827L30.627 35.9084L31.1036 35.634L30.6427 34.8332L30.166 35.1076ZM30.627 35.9084L30.1506 36.1832C30.1371 36.1599 30.1448 36.1289 30.1693 36.1147L30.4443 36.591L30.7194 37.0673C31.222 36.777 31.3927 36.135 31.1034 35.6335L30.627 35.9084ZM30.4443 36.591L30.1693 36.1147L27.9339 37.4057L28.209 37.882L28.4841 38.3583L30.7194 37.0672L30.4443 36.591ZM28.209 37.882L27.9341 37.4056C27.9591 37.3912 27.9894 37.4005 28.0026 37.4233L27.5264 37.6984L27.0501 37.9735C27.3394 38.4744 27.9806 38.6487 28.4838 38.3584L28.209 37.882ZM27.5264 37.6984L28.0026 37.4233L27.2507 36.1215L26.7744 36.3966L26.2982 36.6717L27.0501 37.9735L27.5264 37.6984ZM26.7744 36.3966L27.2507 36.1216C27.0344 35.7471 26.6227 35.5595 26.2213 35.5971L26.2725 36.1447L26.3237 36.6923C26.3235 36.6923 26.3212 36.6925 26.317 36.6904C26.3121 36.688 26.3041 36.6821 26.2981 36.6717L26.7744 36.3966ZM26.2725 36.1447L26.2213 35.5971C26.0255 35.6154 25.8276 35.6249 25.6279 35.625L25.6279 36.175L25.628 36.725C25.8629 36.7249 26.0949 36.7137 26.3236 36.6923L26.2725 36.1447ZM25.6279 36.175V35.625H22.7627V36.175V36.725H25.6279V36.175ZM22.7627 36.175V35.625C22.6282 35.625 22.4944 35.6206 22.3613 35.6124L22.3271 36.1613L22.2929 36.7102C22.448 36.7199 22.6047 36.725 22.7627 36.725V36.175ZM22.3271 36.1613L22.3614 35.6124C21.9699 35.5879 21.5746 35.7766 21.3646 36.14L21.8408 36.4152L22.317 36.6904C22.3113 36.7003 22.3038 36.706 22.2993 36.7083C22.2953 36.7104 22.2932 36.7102 22.2929 36.7102L22.3271 36.1613ZM21.8408 36.4152L21.3644 36.1404L20.6242 37.4236L21.1006 37.6984L21.577 37.9732L22.3172 36.69L21.8408 36.4152ZM21.1006 37.6984L20.6244 37.4231C20.6386 37.3987 20.6686 37.3912 20.692 37.4047L20.417 37.881L20.142 38.3573C20.6435 38.6469 21.2863 38.476 21.5767 37.9737L21.1006 37.6984ZM20.417 37.881L20.6921 37.4047L18.4567 36.1137L18.1816 36.59L17.9066 37.0663L20.1419 38.3573L20.417 37.881ZM18.1816 36.59L18.4571 36.1139C18.4809 36.1277 18.4892 36.1584 18.4754 36.1823L17.999 35.9074L17.5227 35.6324C17.2329 36.1344 17.4047 36.7759 17.9062 37.0661L18.1816 36.59ZM17.999 35.9074L18.4754 36.1822L18.8602 35.5152L18.3838 35.2404L17.9074 34.9656L17.5226 35.6326L17.999 35.9074ZM18.3838 35.2404L18.8603 35.5151C19.1346 35.0392 18.9879 34.4641 18.5958 34.1455L18.249 34.5724L17.9022 34.9993C17.903 34.9999 17.9019 34.9996 17.9011 34.996C17.9007 34.9937 17.9002 34.9895 17.9011 34.9837C17.902 34.9774 17.9042 34.971 17.9073 34.9657L18.3838 35.2404ZM18.249 34.5724L18.5957 34.1455C18.1478 33.7817 17.7482 33.3607 17.4088 32.8936L16.9639 33.217L16.5189 33.5403C16.9149 34.0851 17.3806 34.5757 17.9023 34.9994L18.249 34.5724ZM16.9639 33.217L17.4087 32.8935C17.2145 32.6264 16.8995 32.4482 16.5449 32.4482L16.5449 32.9982L16.5449 33.5482C16.535 33.5482 16.5274 33.5456 16.5233 33.5434C16.5196 33.5414 16.5187 33.54 16.519 33.5404L16.9639 33.217ZM16.5449 32.9982V32.4482H15.5V32.9982V33.5482H16.5449V32.9982ZM15.5 32.9982V32.4482C14.9753 32.4482 14.55 32.0229 14.55 31.4982H14H13.45C13.45 32.6304 14.3678 33.5482 15.5 33.5482V32.9982ZM14 31.4982H14.55V30.4982H14H13.45V31.4982H14ZM14 30.4982L14.55 30.4982C14.55 29.9736 14.9754 29.5482 15.5 29.5482V28.9982V28.4482C14.3678 28.4482 13.4501 29.3661 13.45 30.4982L14 30.4982ZM15.5 28.9982V29.5482C15.861 29.5482 16.1441 29.2571 16.1505 28.9087L15.6006 28.8986L15.0507 28.8885C15.0551 28.6499 15.2489 28.4482 15.5 28.4482V28.9982ZM15.6006 28.8986L16.1505 28.9072C16.1782 27.1378 16.9013 25.5381 18.0592 24.3662L17.668 23.9796L17.2767 23.5931C15.9279 24.9582 15.0829 26.8255 15.0507 28.89L15.6006 28.8986ZM17.668 23.9796L18.186 23.7948L17.0082 20.495L16.4902 20.6798L15.9722 20.8647L17.15 24.1645L17.668 23.9796ZM16.4902 20.6798L17.0082 20.495C17.0115 20.5042 17.0148 20.5235 17.0025 20.5508C16.9959 20.5654 16.9843 20.5831 16.9654 20.5997C16.9457 20.6168 16.9232 20.6282 16.9026 20.6336L16.7627 20.1017L16.6228 19.5698C16.0002 19.7336 15.8008 20.3843 15.9722 20.8647L16.4902 20.6798Z" fill="white"/>
<path d="M31 24C31.6667 23.8333 33 23.2 33 22" stroke="white" stroke-width="1.1" stroke-linecap="round"/>
<circle cx="19" cy="28" r="1" fill="white"/>
<path d="M23 24H26" stroke="white" stroke-width="1.1" stroke-linecap="round"/>
<path d="M21.2969 14.2578C21.2969 13.9817 21.5207 13.7578 21.7969 13.7578C22.073 13.7578 22.2969 13.9817 22.2969 14.2578C22.2969 15.1349 23.1313 15.8994 24.3984 15.8994C25.6655 15.8994 26.5 15.1349 26.5 14.2578C26.5 13.9817 26.7239 13.7578 27 13.7578C27.2761 13.7578 27.5 13.9817 27.5 14.2578V15.7383C27.5 17.3266 26.0434 18.5 24.3984 18.5C22.7535 18.5 21.2969 17.3266 21.2969 15.7383V14.2578Z" fill="#19B3BD" stroke="white" stroke-linecap="round" stroke-linejoin="round"/>
<path d="M24.3984 11.5C25.139 11.5 25.8205 11.7426 26.3574 12.1523L26.5791 12.3379L26.582 12.3418C27.1404 12.8671 27.5 13.5976 27.5 14.416C27.5 14.8922 27.3775 15.3372 27.1582 15.7207L27.1572 15.7197C26.6264 16.6519 25.5654 17.2041 24.3984 17.2041C23.2315 17.2041 22.1704 16.6519 21.6396 15.7197C21.4204 15.3363 21.2969 14.8921 21.2969 14.416C21.2969 13.598 21.6555 12.8658 22.2158 12.3438C22.7809 11.8167 23.5518 11.5 24.3984 11.5Z" fill="#19B3BD" stroke="white" stroke-linecap="round" stroke-linejoin="round"/>
</svg>
