<svg width="58" height="60" viewBox="0 0 58 60" fill="none" xmlns="http://www.w3.org/2000/svg">
<path d="M49.0428 7.75879H24.686C24.1583 7.75879 23.7305 8.1866 23.7305 8.71433V37.7915C23.7305 38.3192 24.1583 38.7471 24.686 38.7471H49.0428C49.5705 38.7471 49.9984 38.3192 49.9984 37.7915V8.71433C49.9984 8.1866 49.5705 7.75879 49.0428 7.75879Z" fill="#CCCCCC"/>
<path d="M35.1298 20.4316C35.1298 19.9921 34.7801 19.6309 34.352 19.6309H8.77781C8.34973 19.6309 8 19.9901 8 20.4316V51.4409C8 51.8804 8.34973 52.2416 8.77781 52.2416H26.9809C27.409 52.2416 28.0053 51.9875 28.3072 51.6759L34.5794 45.2222C34.8813 44.9107 35.1298 44.2972 35.1298 43.8558V20.4297V20.4316Z" fill="#3F58D4"/>
<path d="M27.7578 51.4406C27.7578 51.8802 28.0043 51.9853 28.3082 51.6757L34.5804 45.2219C34.8823 44.9104 34.7811 44.6562 34.353 44.6562H28.5375C28.1095 44.6562 27.7597 45.0155 27.7597 45.457V51.4406H27.7578Z" fill="#CCCCCC"/>
<path d="M29.3193 26.9365H13.8125C13.3983 26.9365 13.0625 27.2723 13.0625 27.6865C13.0625 28.1007 13.3983 28.4365 13.8125 28.4365H29.3193C29.7335 28.4365 30.0693 28.1007 30.0693 27.6865C30.0693 27.2723 29.7335 26.9365 29.3193 26.9365Z" fill="white"/>
<path d="M29.3193 32.4941H13.8125C13.3983 32.4941 13.0625 32.8299 13.0625 33.2441C13.0625 33.6584 13.3983 33.9941 13.8125 33.9941H29.3193C29.7335 33.9941 30.0693 33.6584 30.0693 33.2441C30.0693 32.8299 29.7335 32.4941 29.3193 32.4941Z" fill="white"/>
<path d="M29.3193 38.0527H13.8125C13.3983 38.0527 13.0625 38.3885 13.0625 38.8027C13.0625 39.2169 13.3983 39.5527 13.8125 39.5527H29.3193C29.7335 39.5527 30.0693 39.2169 30.0693 38.8027C30.0693 38.3885 29.7335 38.0527 29.3193 38.0527Z" fill="white"/>
</svg>
