<svg width="24" height="24" viewBox="0 0 24 24" fill="none" xmlns="http://www.w3.org/2000/svg">
<path d="M9 22H15C20 22 22 20 22 15V9C22 4 20 2 15 2H9C4 2 2 4 2 9V15C2 20 4 22 9 22Z" fill="#D95240"/>
<path d="M8 7.21008H9.24727V8.20448C9.87515 7.40149 10.7236 7 11.7927 7C12.4036 7 12.9509 7.14939 13.4345 7.44818C13.9267 7.74697 14.3085 8.16713 14.58 8.70868C14.86 9.2409 15 9.86181 15 10.5714C15 11.2717 14.86 11.8926 14.58 12.4342C14.3085 12.9757 13.9309 13.3959 13.4473 13.6947C12.9636 13.9935 12.4121 14.1429 11.7927 14.1429C11.2836 14.1429 10.8085 14.0495 10.3673 13.8627C9.92606 13.676 9.56545 13.4006 9.28545 13.0364V17H8V7.21008ZM11.5 13.0224C11.9158 13.0224 12.2891 12.9244 12.62 12.7283C12.9594 12.5229 13.2224 12.2334 13.4091 11.8599C13.6042 11.4865 13.7018 11.057 13.7018 10.5714C13.7018 10.0859 13.6042 9.66106 13.4091 9.29692C13.2224 8.92344 12.9594 8.63866 12.62 8.44258C12.2891 8.23716 11.9158 8.13445 11.5 8.13445C10.9824 8.13445 10.5242 8.28385 10.1255 8.58263C9.73515 8.88142 9.45515 9.29225 9.28545 9.81513V11.3277C9.4297 11.8413 9.70545 12.2521 10.1127 12.5602C10.52 12.8683 10.9824 13.0224 11.5 13.0224Z" fill="white"/>
</svg>
