<svg width="24" height="24" viewBox="0 0 24 24" fill="none" xmlns="http://www.w3.org/2000/svg">
<path d="M9 22H15C20 22 22 20 22 15V9C22 4 20 2 15 2H9C4 2 2 4 2 9V15C2 20 4 22 9 22Z" fill="#071E34"/>
<path d="M7.996 16.004V12.824H10.216C11.8 12.824 12.724 11.72 12.724 10.412C12.724 9.104 11.824 8 10.216 8H7V16.004H7.996ZM10.096 11.936H7.996V8.888H10.096C11.044 8.888 11.692 9.512 11.692 10.412C11.692 11.312 11.044 11.936 10.096 11.936Z" fill="#56A7F8"/>
<path d="M15.603 16.148C17.103 16.148 17.883 15.368 17.883 14.396C17.883 12.14 14.295 12.98 14.295 11.708C14.295 11.192 14.787 10.796 15.579 10.796C16.323 10.796 16.959 11.108 17.307 11.528L17.727 10.904C17.259 10.436 16.563 10.064 15.579 10.064C14.199 10.064 13.419 10.832 13.419 11.732C13.419 13.88 17.007 13.016 17.007 14.42C17.007 14.996 16.527 15.416 15.639 15.416C14.847 15.416 14.115 15.032 13.731 14.588L13.263 15.236C13.851 15.86 14.655 16.148 15.603 16.148Z" fill="#56A7F8"/>
</svg>
