<?xml version="1.0" encoding="utf-8"?>
<!-- Generator: Adobe Illustrator 23.0.0, SVG Export Plug-In . SVG Version: 6.00 Build 0)  -->
<svg version="1.1" id="레이어_1" xmlns="http://www.w3.org/2000/svg" xmlns:xlink="http://www.w3.org/1999/xlink" x="0px"
	 y="0px" viewBox="0 0 24 24" style="enable-background:new 0 0 24 24;" xml:space="preserve">
<style type="text/css">
	.st0{fill:#FFFFFF;}
</style>
<path class="st0" d="M8.7,6.7c0.3,0,0.5,0.2,0.5,0.5v9.6c0,0.3-0.2,0.5-0.5,0.5c-0.3,0-0.5-0.2-0.5-0.5V7.2C8.1,6.9,8.4,6.7,8.7,6.7
	z M15.3,6.7c0.3,0,0.5,0.2,0.5,0.5v9.6c0,0.3-0.2,0.5-0.5,0.5c-0.3,0-0.5-0.2-0.5-0.5V7.2C14.8,6.9,15,6.7,15.3,6.7z"/>
<path class="st0" d="M8.7,6.7V6.2h0L8.7,6.7z M8.7,17.3l0,0.5h0V17.3z M15.3,6.7l0-0.5h0V6.7z M15.3,17.3v0.5h0L15.3,17.3z M8.7,6.7
	v0.5c0,0,0,0,0,0h0.5h0.5c0-0.6-0.5-1-1-1V6.7z M9.2,7.2H8.7v9.6h0.5h0.5V7.2H9.2z M9.2,16.8H8.7c0,0,0,0,0,0v0.5v0.5
	c0.6,0,1-0.5,1-1H9.2z M8.7,17.3l0-0.5c0,0,0,0,0,0H8.1H7.6c0,0.6,0.5,1,1,1L8.7,17.3z M8.1,16.8h0.5V7.2H8.1H7.6v9.6H8.1z M8.1,7.2
	h0.5c0,0,0,0,0,0l0-0.5l0-0.5c-0.6,0-1,0.5-1,1H8.1z M15.3,6.7l0,0.5c0,0,0,0,0,0h0.5h0.5c0-0.6-0.5-1-1-1L15.3,6.7z M15.9,7.2h-0.5
	v9.6h0.5h0.5V7.2H15.9z M15.9,16.8h-0.5c0,0,0,0,0,0l0,0.5l0,0.5c0.6,0,1-0.5,1-1H15.9z M15.3,17.3v-0.5c0,0,0,0,0,0h-0.5h-0.5
	c0,0.6,0.5,1,1,1V17.3z M14.8,16.8h0.5V7.2h-0.5h-0.5v9.6H14.8z M14.8,7.2h0.5c0,0,0,0,0,0V6.7V6.2c-0.6,0-1,0.5-1,1H14.8z"/>
<g>
	<path class="st0" d="M12,1.5c5.8,0,10.5,4.7,10.5,10.5S17.8,22.5,12,22.5S1.5,17.8,1.5,12S6.2,1.5,12,1.5 M12,0C5.4,0,0,5.4,0,12
		s5.4,12,12,12s12-5.4,12-12S18.6,0,12,0L12,0z"/>
</g>
</svg>
