<svg width="24" height="24" viewBox="0 0 24 24" fill="none" xmlns="http://www.w3.org/2000/svg">
<path d="M18 12V15.5615C18 18.5647 15.3138 21 12 21C8.68615 21 6 18.5647 6 15.5615V12C6 15.0032 8.68615 17.1497 12 17.1497C15.3138 17.1497 18 15.0032 18 12Z" stroke="#333333" stroke-width="1.5" stroke-linecap="round" stroke-linejoin="round"/>
<path d="M18 8.13637C18 8.96364 17.7692 9.72727 17.3631 10.3818C16.3754 11.9818 14.3446 13 12 13C9.65538 13 7.62462 11.9818 6.63693 10.3818C6.23077 9.72727 6 8.96364 6 8.13637C6 6.71818 6.67384 5.43636 7.75384 4.50909C8.84307 3.57273 10.3385 3 12 3C13.6615 3 15.1569 3.57273 16.2462 4.5C17.3262 5.43637 18 6.71818 18 8.13637Z" stroke="#333333" stroke-width="1.5" stroke-linecap="round" stroke-linejoin="round"/>
<path d="M18 7.94375V12.3188C18 15.0488 15.3138 17 12 17C8.68615 17 6 15.0488 6 12.3188V7.94375C6 5.21375 8.68615 3 12 3C13.6615 3 15.1569 3.55125 16.2462 4.44375C17.3262 5.345 18 6.57875 18 7.94375Z" stroke="#333333" stroke-width="1.5" stroke-linecap="round" stroke-linejoin="round"/>
</svg>
