<svg width="24" height="24" viewBox="0 0 24 24" fill="none" xmlns="http://www.w3.org/2000/svg">
<path d="M9 22H15C20 22 22 20 22 15V9C22 4 20 2 15 2H9C4 2 2 4 2 9V15C2 20 4 22 9 22Z" fill="#F7CB4B"/>
<path d="M9 5L11 5" stroke="white" stroke-width="1.5" stroke-linecap="round" stroke-linejoin="round"/>
<path d="M13 3.5L15 3.5" stroke="white" stroke-width="1.5" stroke-linecap="round" stroke-linejoin="round"/>
<path d="M13 6.5L15 6.5" stroke="white" stroke-width="1.5" stroke-linecap="round" stroke-linejoin="round"/>
<rect x="9" y="8" width="6" height="7" rx="3" fill="white"/>
<path d="M7.5 20V19.4343L9.85263 16.72H7.51828V16H11.0046V16.5657L8.65193 19.28H11.0289V20H7.5Z" fill="white"/>
<path d="M11.3958 20V16H12.2795V20H11.3958Z" fill="white"/>
<path d="M12.9345 20V16H15.0738C15.3542 16 15.6 16.0533 15.8113 16.16C16.0266 16.2667 16.1953 16.4152 16.3172 16.6057C16.4391 16.7924 16.5 17.0095 16.5 17.2571C16.5 17.4933 16.4391 17.7048 16.3172 17.8914C16.1953 18.0781 16.0266 18.2248 15.8113 18.3314C15.5959 18.4381 15.3501 18.4914 15.0738 18.4914H13.8183V20H12.9345ZM13.8183 17.8057H14.9763C15.1673 17.8057 15.3196 17.7562 15.4334 17.6571C15.5512 17.5581 15.6101 17.4267 15.6101 17.2629C15.6101 17.0952 15.5512 16.9619 15.4334 16.8629C15.3196 16.7638 15.1673 16.7143 14.9763 16.7143H13.8183V17.8057Z" fill="white"/>
<rect x="11" y="11" width="2" height="3" rx="1" fill="#F7CB4B"/>
</svg>
