<svg width="24" height="24" viewBox="0 0 24 24" fill="none" xmlns="http://www.w3.org/2000/svg">
<path d="M9 22H15C20 22 22 20 22 15V9C22 4 20 2 15 2H9C4 2 2 4 2 9V15C2 20 4 22 9 22Z" fill="#ED1F24"/>
<path d="M18.7989 13.6909C18.4144 13.3091 17.6263 13.0909 16.5114 13.0909C15.9155 13.0909 15.2235 13.1455 14.4738 13.2727C14.0509 12.8909 13.628 12.4364 13.2244 11.9091C12.936 11.5455 12.6861 11.1455 12.4555 10.7636C12.8976 9.49091 13.109 8.45455 13.109 7.70909C13.109 6.87273 12.7823 6 11.8404 6C11.552 6 11.2637 6.16364 11.1099 6.4C10.687 7.10909 10.8792 8.65455 11.6097 10.1818C11.3406 10.9455 11.0522 11.6727 10.687 12.4909C10.3795 13.1818 10.0335 13.8909 9.64902 14.5455C7.53456 15.3455 6.16977 16.2727 6.01599 17C5.95833 17.2727 6.05444 17.5273 6.26588 17.7273C6.34277 17.7818 6.61189 18 7.07322 18C8.47645 18 9.95657 15.8545 10.7062 14.5636C11.2829 14.3818 11.8596 14.2 12.4363 14.0545C13.0706 13.8909 13.7049 13.7636 14.2816 13.6727C15.7617 14.9273 17.0688 15.1273 17.7224 15.1273C18.5297 15.1273 18.8181 14.8182 18.9142 14.5636C19.0872 14.2364 18.9719 13.8727 18.7989 13.6909ZM18.03 14.2182C17.9723 14.4909 17.684 14.6727 17.2803 14.6727C17.165 14.6727 17.0688 14.6545 16.9535 14.6364C16.2231 14.4727 15.5311 14.1273 14.839 13.5818C15.5118 13.4727 16.0885 13.4545 16.4537 13.4545C16.8574 13.4545 17.2034 13.4727 17.4341 13.5273C17.7032 13.5818 18.1261 13.7455 18.03 14.2182ZM13.9548 13.3636C13.455 13.4545 12.9168 13.5636 12.3594 13.7091C11.9173 13.8182 11.4559 13.9455 10.9946 14.0909C11.2445 13.6364 11.4559 13.2 11.6481 12.7818C11.8788 12.2727 12.071 11.7455 12.2633 11.2545C12.4555 11.5636 12.6669 11.8727 12.8784 12.1455C13.2436 12.5818 13.6088 13 13.9548 13.3636ZM11.4367 6.6C11.5136 6.45455 11.6674 6.38182 11.8019 6.38182C12.2056 6.38182 12.2825 6.81818 12.2825 7.16364C12.2825 7.74545 12.0903 8.63636 11.7635 9.65455C11.206 8.23636 11.1676 7.05455 11.4367 6.6ZM9.32224 15.0727C8.3419 16.6 7.4 17.5455 6.82333 17.5455C6.708 17.5455 6.61189 17.5091 6.535 17.4545C6.41966 17.3455 6.362 17.2182 6.40044 17.0727C6.51577 16.5273 7.63067 15.7636 9.32224 15.0727Z" fill="url(#paint0_linear_424_27278)"/>
<defs>
<linearGradient id="paint0_linear_424_27278" x1="5.99912" y1="12.0007" x2="18.9992" y2="12.0007" gradientUnits="userSpaceOnUse">
<stop stop-color="white"/>
<stop offset="0.14" stop-color="white"/>
<stop offset="1" stop-color="#EAECEA"/>
</linearGradient>
</defs>
</svg>
