<svg width="24" height="24" viewBox="0 0 24 24" fill="none" xmlns="http://www.w3.org/2000/svg">
<path d="M22 7.46559V13.4243C22 15.7009 20.8308 17.412 18.9231 18.0842C18.3385 18.2829 17.6923 18.3899 17 18.3899H13L8.55385 21.3386C7.89231 21.7664 7 21.2929 7 20.5137V18.3899C5.50769 18.3899 4.24615 17.901 3.36923 17.0301C2.49231 16.1592 2 14.9064 2 13.4243V7.46559C2 6.77805 2.10769 6.13634 2.30769 5.55575C2.98462 3.66118 4.70769 2.5 7 2.5H17C20 2.5 22 4.48624 22 7.46559Z" stroke="#333333" stroke-width="1.5" stroke-miterlimit="10" stroke-linecap="round" stroke-linejoin="round"/>
<path d="M16.0951 11H16.1041" stroke="#333333" stroke-width="1.5" stroke-linecap="round" stroke-linejoin="round"/>
<path d="M12.2963 11H12.3053" stroke="#333333" stroke-width="1.5" stroke-linecap="round" stroke-linejoin="round"/>
<path d="M8.4955 11H8.5045" stroke="#333333" stroke-width="1.5" stroke-linecap="round" stroke-linejoin="round"/>
</svg>
