<svg width="24" height="24" viewBox="0 0 24 24" fill="none" xmlns="http://www.w3.org/2000/svg">
<path d="M9 22H15C20 22 22 20 22 15V9C22 4 20 2 15 2H9C4 2 2 4 2 9V15C2 20 4 22 9 22Z" fill="#999999"/>
<path d="M12.6365 10.9999C13.4063 9.66663 15.3305 9.66677 16.1004 10.9999L18.699 15.4999C19.4688 16.8332 18.5062 18.4999 16.9666 18.4999H11.7703C10.8662 18.4997 9.63925 18.4998 8.73514 18.4999H7.00271C5.46322 18.4999 4.50069 16.8332 5.27029 15.4999L6.1365 13.9999C6.90626 12.6666 8.83049 12.6668 9.60037 13.9999C9.88985 14.5016 10.6139 14.5018 10.9036 14.0002L12.6365 10.9999Z" fill="white"/>
<circle cx="9" cy="9" r="2" fill="white"/>
</svg>
