<svg width="24" height="24" viewBox="0 0 24 24" fill="none" xmlns="http://www.w3.org/2000/svg">
<path d="M9 22H15C20 22 22 20 22 15V9C22 4 20 2 15 2H9C4 2 2 4 2 9V15C2 20 4 22 9 22Z" fill="#2E0402"/>
<path d="M9.88804 7.61133H11.064L14.412 15.9993H13.164L12.324 13.9113H8.61604L7.80004 15.9993H6.54004L9.88804 7.61133ZM11.988 12.8913L10.476 8.96733L8.96404 12.8913H11.988Z" fill="white"/>
<path d="M16.2012 9.11133C16.0012 9.11133 15.8332 9.04333 15.6972 8.90733C15.5612 8.77133 15.4932 8.60333 15.4932 8.40333C15.4932 8.20333 15.5612 8.03533 15.6972 7.89933C15.8332 7.76333 16.0012 7.69533 16.2012 7.69533C16.4092 7.69533 16.5812 7.76333 16.7172 7.89933C16.8612 8.03533 16.9332 8.20333 16.9332 8.40333C16.9332 8.60333 16.8612 8.77133 16.7172 8.90733C16.5812 9.04333 16.4092 9.11133 16.2012 9.11133ZM15.5892 10.2393H16.8252V15.9993H15.5892V10.2393Z" fill="white"/>
</svg>
