<svg width="24" height="24" viewBox="0 0 24 24" fill="none" xmlns="http://www.w3.org/2000/svg">
<path d="M18 20.0603C18 20.8887 17.3284 21.5603 16.5 21.5603H7.50002C6.67159 21.5603 6.00002 20.8887 6.00002 20.0603L6 14.0603C6 13.2319 6.67158 12.5603 7.5 12.5603H16.5C17.3284 12.5603 18 13.2319 18 14.0603V20.0603Z" stroke="#333333" stroke-width="1.5" stroke-linecap="round" stroke-linejoin="round"/>
<path d="M9.5 18.5603H14.5" stroke="#333333" stroke-width="1.5" stroke-linecap="round" stroke-linejoin="round"/>
<path d="M10.5 15.5603H13.5" stroke="#333333" stroke-width="1.5" stroke-linecap="round" stroke-linejoin="round"/>
<path d="M17.182 2.43982H6.81763C6.26534 2.43982 5.81763 2.88753 5.81763 3.43982V5.43982C5.81763 5.9921 6.26534 6.43982 6.81763 6.43982H17.182C17.7342 6.43982 18.182 5.9921 18.182 5.43982V3.43982C18.182 2.88753 17.7342 2.43982 17.182 2.43982Z" stroke="#333333" stroke-width="1.5" stroke-linecap="round" stroke-linejoin="round"/>
<path d="M20.8743 6.43982H3.12567C2.504 6.43982 2 6.94382 2 7.56549V13.8988C2 14.5205 2.504 15.0245 3.12567 15.0245H4.77982C5.46028 15.0245 6.01191 14.4729 6.01191 13.7924V13.7924C6.01191 13.1119 6.56353 12.5603 7.244 12.5603H16.7658C17.4462 12.5603 17.9979 13.1119 17.9979 13.7924V13.7924C17.9979 14.4729 18.5495 15.0245 19.2299 15.0245H20.8743C21.496 15.0245 22 14.5205 22 13.8988V7.56549C22 6.94382 21.496 6.43982 20.8743 6.43982Z" stroke="#333333" stroke-width="1.5" stroke-linecap="round" stroke-linejoin="round"/>
<path d="M17.417 9.59729H16.417" stroke="#333333" stroke-width="1.5" stroke-linecap="round" stroke-linejoin="round"/>
</svg>
