<svg width="80" height="80" viewBox="0 0 80 80" fill="none" xmlns="http://www.w3.org/2000/svg">
<rect width="80" height="80" rx="32" fill="#F5E04B"/>
<g clip-path="url(#clip0_2244_217146)">
<path d="M40 16C25.6401 16 14 25.2448 14 36.6553C14 44.0798 18.929 50.5866 26.3323 54.2273C25.7874 56.2647 24.3637 61.6173 24.0789 62.7618C23.7255 64.1825 24.5944 64.1628 25.1688 63.7829C25.6156 63.482 32.2923 58.9188 35.1741 56.9505C36.7402 57.1823 38.3505 57.3057 40 57.3057C54.3599 57.3057 66 48.0608 66 36.6553C66 25.2497 54.3599 16 40 16Z" fill="#371C1D"/>
<path d="M21.8601 32.8535H24.5357C24.5357 32.8535 24.5504 40.2385 24.5357 41.9602C24.5357 43.2181 27.3193 43.2329 27.3144 41.9799L27.3242 32.9522C27.3242 32.9522 28.2226 32.9571 29.9851 32.9571C31.6494 32.9571 31.6494 30.3277 29.9851 30.3277C28.1097 30.3277 21.8454 30.2734 21.8454 30.2734C20.2744 30.2734 20.2793 32.8535 21.8454 32.8535" fill="#F9E000"/>
<mask id="mask0_2244_217146" style="mask-type:luminance" maskUnits="userSpaceOnUse" x="20" y="30" width="12" height="13">
<path d="M21.8601 32.8535H24.5357C24.5357 32.8535 24.5504 40.2385 24.5357 41.9602C24.5357 43.2181 27.3193 43.2329 27.3144 41.9799L27.3242 32.9522C27.3242 32.9522 28.2226 32.9571 29.9851 32.9571C31.6494 32.9571 31.6494 30.3277 29.9851 30.3277C28.1097 30.3277 21.8454 30.2734 21.8454 30.2734C20.2744 30.2734 20.2793 32.8535 21.8454 32.8535" fill="white"/>
</mask>
<g mask="url(#mask0_2244_217146)">
<path d="M31.6592 30.2734H20.2891V43.2329H31.6592V30.2734Z" fill="#F9E000"/>
</g>
<path d="M34.6684 33.3324L36.1559 38.019H33.0532L34.6684 33.3324ZM32.9992 31.1372C32.3413 32.5925 29.9603 39.4743 29.1748 41.2996C28.6053 42.6167 31.0649 43.6922 31.6344 42.375L32.1695 40.4954H37.0641C37.0641 40.4954 36.8972 40.5744 37.5453 42.2961C38.0706 43.6922 40.6136 42.7252 40.0883 41.3292C39.3372 39.3361 36.7352 32.1534 36.259 31.1372C36.043 30.6685 35.2575 30.3281 34.4965 30.3281C33.8681 30.3281 33.2545 30.56 32.9943 31.1372" fill="#F9E000"/>
<mask id="mask1_2244_217146" style="mask-type:luminance" maskUnits="userSpaceOnUse" x="29" y="30" width="12" height="13">
<path d="M34.6684 33.3324L36.1559 38.019H33.0532L34.6684 33.3324ZM32.9992 31.1372C32.3413 32.5925 29.9603 39.4743 29.1748 41.2996C28.6053 42.6167 31.0649 43.6922 31.6344 42.375L32.1695 40.4954H37.0641C37.0641 40.4954 36.8972 40.5744 37.5453 42.2961C38.0706 43.6922 40.6136 42.7252 40.0883 41.3292C39.3372 39.3361 36.7352 32.1534 36.259 31.1372C36.043 30.6685 35.2575 30.3281 34.4965 30.3281C33.8681 30.3281 33.2545 30.56 32.9943 31.1372" fill="white"/>
</mask>
<g mask="url(#mask1_2244_217146)">
<path d="M40.6187 30.3281H28.6006V43.6971H40.6187V30.3281Z" fill="#F9E000"/>
</g>
<path d="M41.0313 31.5664C41.0313 33.9047 41.046 41.4426 41.046 41.4426C41.046 41.4426 40.83 42.9423 42.1113 42.9423C43.3927 42.9423 46.2254 42.9275 47.4822 42.9275C48.739 42.9275 48.7341 40.2389 47.4773 40.2389C46.2205 40.2389 43.9229 40.2241 43.9229 40.2241C43.9229 40.2241 43.9327 33.2535 43.9278 31.5565C43.9278 30.7376 43.2012 30.3281 42.4795 30.3281C41.7579 30.3281 41.0264 30.7425 41.0313 31.5614" fill="#F9E000"/>
<mask id="mask2_2244_217146" style="mask-type:luminance" maskUnits="userSpaceOnUse" x="41" y="30" width="8" height="13">
<path d="M41.0313 31.5664C41.0313 33.9047 41.046 41.4426 41.046 41.4426C41.046 41.4426 40.83 42.9423 42.1113 42.9423C43.3927 42.9423 46.2254 42.9275 47.4822 42.9275C48.739 42.9275 48.7341 40.2389 47.4773 40.2389C46.2205 40.2389 43.9229 40.2241 43.9229 40.2241C43.9229 40.2241 43.9327 33.2535 43.9278 31.5565C43.9278 30.7376 43.2012 30.3281 42.4795 30.3281C41.7579 30.3281 41.0264 30.7425 41.0313 31.5614" fill="white"/>
</mask>
<g mask="url(#mask2_2244_217146)">
<path d="M48.7391 30.3281H40.8301V42.9374H48.7391V30.3281Z" fill="#F9E000"/>
</g>
<path d="M49.0725 31.1943C49.1019 32.2204 49.0381 41.4948 49.0381 42.1805C49.0381 43.2658 51.7873 43.2609 51.7873 42.1805C51.7873 40.9226 51.7873 38.53 51.7873 38.53L52.5925 37.8788L56.1223 42.7133C56.8342 43.6605 59.0777 41.9487 58.3659 41.0064L54.62 36.0486C54.62 36.0486 57.1631 33.286 58.1646 32.2846C58.7488 31.7024 56.9373 29.8673 56.353 30.4543C55.7885 31.0167 51.8021 35.0274 51.8021 35.0274C51.8021 35.0274 51.8364 32.5115 51.8021 31.1203C51.7873 30.5925 51.1442 30.3359 50.4814 30.3359C49.7745 30.3359 49.0528 30.627 49.0675 31.1943" fill="#F9E000"/>
<mask id="mask3_2244_217146" style="mask-type:luminance" maskUnits="userSpaceOnUse" x="49" y="30" width="10" height="13">
<path d="M49.0725 31.1943C49.1019 32.2204 49.0381 41.4948 49.0381 42.1805C49.0381 43.2658 51.7873 43.2609 51.7873 42.1805C51.7873 40.9226 51.7873 38.53 51.7873 38.53L52.5925 37.8788L56.1223 42.7133C56.8342 43.6605 59.0777 41.9487 58.3659 41.0064L54.62 36.0486C54.62 36.0486 57.1631 33.286 58.1646 32.2846C58.7488 31.7024 56.9373 29.8673 56.353 30.4543C55.7885 31.0167 51.8021 35.0274 51.8021 35.0274C51.8021 35.0274 51.8364 32.5115 51.8021 31.1203C51.7873 30.5925 51.1442 30.3359 50.4814 30.3359C49.7745 30.3359 49.0528 30.627 49.0675 31.1943" fill="white"/>
</mask>
<g mask="url(#mask3_2244_217146)">
<path d="M59.0777 29.875H49.0381V43.6682H59.0777V29.875Z" fill="#F9E000"/>
</g>
</g>
<defs>
<clipPath id="clip0_2244_217146">
<rect width="52" height="48" fill="white" transform="translate(14 16)"/>
</clipPath>
</defs>
</svg>
