<svg width="16" height="16" viewBox="0 0 16 16" fill="none" xmlns="http://www.w3.org/2000/svg">
<path d="M13.25 2.75V9C13.25 10.4352 13.248 11.4361 13.1465 12.1914C13.0478 12.9252 12.8676 13.3141 12.5908 13.5908C12.3141 13.8676 11.9252 14.0478 11.1914 14.1465C10.4361 14.248 9.43515 14.25 8 14.25C6.56485 14.25 5.5639 14.248 4.80859 14.1465C4.07482 14.0478 3.68594 13.8676 3.40918 13.5908C3.13242 13.3141 2.95217 12.9252 2.85352 12.1914C2.75202 11.4361 2.75 10.4352 2.75 9V2.75H13.25Z" stroke="#333333" stroke-width="1.5"/>
<line x1="1.75" y1="2.75" x2="14.25" y2="2.75" stroke="#333333" stroke-width="1.5" stroke-linecap="round"/>
<path d="M8 0.5C9.10457 0.5 10 1.17157 10 2H6C6 1.17157 6.89543 0.5 8 0.5Z" fill="#333333"/>
<path d="M5.50586 7V9.36667" stroke="#333333" stroke-width="1.5" stroke-linecap="round"/>
<path d="M8 7V9.36667" stroke="#333333" stroke-width="1.5" stroke-linecap="round"/>
<path d="M10.5742 7V9.36667" stroke="#333333" stroke-width="1.5" stroke-linecap="round"/>
</svg>
